<svg xmlns="http://www.w3.org/2000/svg" width="84" height="84" viewBox="0 0 84 84"><g transform="translate(-186 -2076.853)"><g transform="translate(1 -2257.134)"><circle cx="42" cy="42" r="42" transform="translate(185 4333.986)" fill="#fdf3ff"/></g><g transform="translate(205.605 2096.163)"><path d="M312.133,304.117a8.09,8.09,0,1,0,8.09,8.09A8.09,8.09,0,0,0,312.133,304.117Zm0,14.709a6.619,6.619,0,1,1,6.619-6.619A6.619,6.619,0,0,1,312.133,318.826Zm0,0" transform="translate(-276.093 -276.056)" fill="#a45eaf"/><path d="M15.487,202.416H8.868v-7.785l2.17,2.169a.735.735,0,0,0,1.04-1.04l-3.425-3.425a.736.736,0,0,0-1.04,0L4.188,195.76a.735.735,0,0,0,1.04,1.04L7.4,194.631v7.785H.778a.735.735,0,0,0-.735.735V217.86a.735.735,0,0,0,.735.735H15.487a.735.735,0,0,0,.735-.735V203.151a.735.735,0,0,0-.735-.735Zm-.735,14.709H1.514V203.887H14.752Zm0,0" transform="translate(-0.039 -174.355)" fill="#a45eaf"/><path d="M22.1,4.259a.735.735,0,1,0-1.04,1.04l2.169,2.17H16.146a8.09,8.09,0,1,0,0,1.471h7.087l-2.169,2.17a.735.735,0,1,0,1.04,1.04l3.425-3.425a.735.735,0,0,0,0-1.04ZM8.093,14.823A6.619,6.619,0,1,1,14.712,8.2,6.619,6.619,0,0,1,8.093,14.823Zm0,0" transform="translate(0 0)" fill="#a45eaf"/><path d="M314.07,15.63l-8.017-6.545a.735.735,0,0,0-.931,0l-8.016,6.545a.735.735,0,0,0,0,1.138l7.747,6.325v8.981l-2.169-2.17a.735.735,0,0,0-1.04,1.04l3.425,3.425a.736.736,0,0,0,1.04,0l3.425-3.425a.735.735,0,0,0-1.04-1.04l-2.17,2.17V23.094l7.746-6.325a.735.735,0,0,0,0-1.138Zm-8.481,6.164-6.853-5.6,6.853-5.6,6.853,5.6Zm0,0" transform="translate(-269.549 -7.995)" fill="#a45eaf"/></g></g></svg>