<svg xmlns="http://www.w3.org/2000/svg" xmlns:xlink="http://www.w3.org/1999/xlink" width="84" height="56.772" viewBox="0 0 84 56.772"><defs><linearGradient id="a" x1="0.301" y1="0.71" x2="0.6" y2="0.401" gradientUnits="objectBoundingBox"><stop offset="0" stop-color="#fca625"/><stop offset="1" stop-color="#ea86fa"/></linearGradient></defs><g transform="translate(-185 -6103.611)"><g transform="translate(241.308 6160.384) rotate(180)"><path d="M25.854,0H16.7a3.435,3.435,0,0,0-3.435,3.435v6.4a3.435,3.435,0,0,1-3.435,3.435h-6.4A3.435,3.435,0,0,0,0,16.7H0v9.152a3.435,3.435,0,0,0,3.435,3.435h9.152a3.435,3.435,0,0,0,3.435-3.435v-6.4a3.435,3.435,0,0,1,3.435-3.435h6.4a3.435,3.435,0,0,0,3.435-3.435V3.435A3.435,3.435,0,0,0,25.854,0" transform="translate(0)" fill="url(#a)"/><path d="M25.854,0H16.7a3.435,3.435,0,0,0-3.435,3.435v6.4a3.435,3.435,0,0,1-3.435,3.435h-6.4A3.435,3.435,0,0,0,0,16.7H0v9.152a3.435,3.435,0,0,0,3.435,3.435h9.152a3.435,3.435,0,0,0,3.435-3.435v-6.4a3.435,3.435,0,0,1,3.435-3.435h6.4a3.435,3.435,0,0,0,3.435-3.435V3.435A3.435,3.435,0,0,0,25.854,0" transform="translate(0 27.484)" fill="url(#a)"/></g><g transform="translate(269 6160.384) rotate(180)"><path d="M25.854,0H16.7a3.435,3.435,0,0,0-3.435,3.435v6.4a3.435,3.435,0,0,1-3.435,3.435h-6.4A3.435,3.435,0,0,0,0,16.7H0v9.152a3.435,3.435,0,0,0,3.435,3.435h9.152a3.435,3.435,0,0,0,3.435-3.435v-6.4a3.435,3.435,0,0,1,3.435-3.435h6.4a3.435,3.435,0,0,0,3.435-3.435V3.435A3.435,3.435,0,0,0,25.854,0" transform="translate(0)" fill="url(#a)"/><path d="M25.854,0H16.7a3.435,3.435,0,0,0-3.435,3.435v6.4a3.435,3.435,0,0,1-3.435,3.435h-6.4A3.435,3.435,0,0,0,0,16.7H0v9.152a3.435,3.435,0,0,0,3.435,3.435h9.152a3.435,3.435,0,0,0,3.435-3.435v-6.4a3.435,3.435,0,0,1,3.435-3.435h6.4a3.435,3.435,0,0,0,3.435-3.435V3.435A3.435,3.435,0,0,0,25.854,0" transform="translate(0 27.484)" fill="url(#a)"/></g><g transform="translate(214.289 6160.384) rotate(180)"><path d="M25.854,0H16.7a3.435,3.435,0,0,0-3.435,3.435v6.4a3.435,3.435,0,0,1-3.435,3.435h-6.4A3.435,3.435,0,0,0,0,16.7H0v9.152a3.435,3.435,0,0,0,3.435,3.435h9.152a3.435,3.435,0,0,0,3.435-3.435v-6.4a3.435,3.435,0,0,1,3.435-3.435h6.4a3.435,3.435,0,0,0,3.435-3.435V3.435A3.435,3.435,0,0,0,25.854,0" transform="translate(0)" fill="url(#a)"/><path d="M25.854,0H16.7a3.435,3.435,0,0,0-3.435,3.435v6.4a3.435,3.435,0,0,1-3.435,3.435h-6.4A3.435,3.435,0,0,0,0,16.7H0v9.152a3.435,3.435,0,0,0,3.435,3.435h9.152a3.435,3.435,0,0,0,3.435-3.435v-6.4a3.435,3.435,0,0,1,3.435-3.435h6.4a3.435,3.435,0,0,0,3.435-3.435V3.435A3.435,3.435,0,0,0,25.854,0" transform="translate(0 27.484)" fill="url(#a)"/></g></g></svg>