<svg xmlns="http://www.w3.org/2000/svg" width="124" height="124" viewBox="0 0 124 124"><g transform="translate(4277.303 718.617)"><circle cx="62" cy="62" r="62" transform="translate(-4277.303 -718.617)" fill="#fff"/><g transform="translate(-4245.47 -702.349)"><path d="M67.545,43.7a4.809,4.809,0,0,0-3.695-1.722H61.512c-2.224-8.722-8.37-9.614-8.571-9.639A12.048,12.048,0,0,1,49.171,31a10.581,10.581,0,0,1-1.458-.98c-.013-.013-.025-.013-.025-.025a9.214,9.214,0,0,1-1.609-1.734,8.85,8.85,0,0,1-.943-1.709,19.8,19.8,0,0,0,5.5-13.623,14.662,14.662,0,0,0-.716-4.612,1.192,1.192,0,0,0-.063-.289c-.013-.025-.038-.038-.05-.063A11.793,11.793,0,0,0,38.225,0,11.928,11.928,0,0,0,25.959,10.808c0,.013-.013.038-.013.05a15.78,15.78,0,0,0-.151,2.074,19.8,19.8,0,0,0,5.53,13.648A11.167,11.167,0,0,1,30.7,27.8a8.849,8.849,0,0,1-2,2.25,6.591,6.591,0,0,1-.691.515,12.156,12.156,0,0,1-4.424,1.772c-.276.038-6.422.93-8.659,9.652H12.587a4.839,4.839,0,0,0-4.763,5.655L12.1,72.426a4.815,4.815,0,0,0,4.751,4.009H59.564a4.815,4.815,0,0,0,4.751-4.009l4.273-24.783A4.738,4.738,0,0,0,67.545,43.7ZM38.225,2.438c4.248,0,7.44,2.023,8.973,5.429C39.582,10.8,35.573,6.435,35.4,6.233a1.176,1.176,0,0,0-.968-.415,1.229,1.229,0,0,0-.93.49,7.447,7.447,0,0,1-4.788,3.117c1.181-4.336,4.65-6.988,9.514-6.988ZM28.246,12.932c0-.339.013-.654.038-.98A9.642,9.642,0,0,0,34.593,8.8c1.923,1.521,6.46,4.022,13.334,1.408a13.459,13.459,0,0,1,.276,2.727c0,6.6-4.361,14.277-9.979,14.277a7.186,7.186,0,0,1-4.612-1.835c-.013-.013-.025-.013-.025-.025-3.2-2.677-5.341-7.8-5.341-12.417Zm9.979,16.715a9.1,9.1,0,0,0,4.939-1.508,11.1,11.1,0,0,0,.93,1.558,13.672,13.672,0,0,0,.892,1.106l-6.761,4.7L31.451,30.79a10.491,10.491,0,0,0,1.332-1.722,9.525,9.525,0,0,0,.5-.93,9.127,9.127,0,0,0,4.939,1.508Zm-14.252,5.09a14.486,14.486,0,0,0,5.391-2.149,1.637,1.637,0,0,1,.189-.126l7.968,5.53a1.179,1.179,0,0,0,.691.214,1.245,1.245,0,0,0,.691-.214l7.98-5.542a11.669,11.669,0,0,0,1.081.679,14.666,14.666,0,0,0,4.575,1.609c.2.025,4.549.741,6.447,7.226H17.451c1.91-6.485,6.259-7.189,6.523-7.226ZM66.213,47.2,61.94,71.987a2.4,2.4,0,0,1-2.35,1.986H16.873a2.375,2.375,0,0,1-2.35-1.986L10.25,47.2a2.4,2.4,0,0,1,2.35-2.8H63.862a2.377,2.377,0,0,1,1.822.855,2.429,2.429,0,0,1,.528,1.948Z" transform="translate(-7.755 0)" fill="#7a96b3"/><path d="M32.778,44.07a3.808,3.808,0,1,0,3.808,3.808,3.813,3.813,0,0,0-3.808-3.808Zm0,5.178a1.37,1.37,0,1,1,1.37-1.37A1.373,1.373,0,0,1,32.778,49.248Z" transform="translate(-2.308 11.315)" fill="#7a96b3"/><path d="M59.568,62.06H14.2a1.219,1.219,0,0,0,0,2.438H59.58A1.212,1.212,0,0,0,60.8,63.279a1.231,1.231,0,0,0-1.232-1.219Z" transform="translate(-6.414 15.934)" fill="#7a96b3"/></g></g></svg>