<svg xmlns="http://www.w3.org/2000/svg" width="124" height="124" viewBox="0 0 124 124"><g transform="translate(3971.303 584.617)"><circle cx="62" cy="62" r="62" transform="translate(-3971.303 -584.617)" fill="#fff"/><path d="M104.687,62.07a1.157,1.157,0,0,0,1.158-1.158v-3.59a7.623,7.623,0,0,0-5.281-7.265L86.25,45.548v-4.6a12.482,12.482,0,0,0,4.842-10.584c2.656.2,5.549-1.37,5.549-4.383V23.559a4.366,4.366,0,0,0-1.187-3c.015-.074.023-3.3.023-3.3a1.158,1.158,0,0,0-2.315,0v1.914h-16.2A3.477,3.477,0,0,1,73.485,15.7V5.788a3.477,3.477,0,0,1,3.473-3.473h7.857a8.356,8.356,0,0,1,8.347,8.347v1.556a1.158,1.158,0,0,0,2.315,0V10.662A10.674,10.674,0,0,0,84.815,0H76.957a5.8,5.8,0,0,0-5.7,4.794H69.316a8.112,8.112,0,0,0-8.1,8.1s.006,7.562.016,7.623A4.367,4.367,0,0,0,60,23.559v2.417c0,2.966,2.88,4.61,5.55,4.383A12.306,12.306,0,0,0,70.39,40.943v4.651L59.976,49.486a5.792,5.792,0,0,0-2.557,1.89l-6.706,8.706V56.207a3.465,3.465,0,0,0-1.2-2.621V48.792a3.554,3.554,0,1,0-7.109,0v3.942c-2.438,0-3.6,1.368-3.6,3.473v9.752a3.478,3.478,0,0,0,2.4,3.3v3.972A5.846,5.846,0,0,0,51.858,76.5l6.129-7.4v8.766a1.157,1.157,0,0,0,1.158,1.158h45.543a1.157,1.157,0,0,0,1.158-1.158v-11.9a1.158,1.158,0,1,0-2.315,0V76.7H96.257V61.341a1.158,1.158,0,0,0-2.315,0v.937H60.3V61.083a1.158,1.158,0,0,0-2.315,0V65.46l-7.948,9.6c-1.895,2.287-6.517,2.356-6.517-1.83v-3.8H47.2v1.239a1.158,1.158,0,0,0,2.315,0V68.581a3.465,3.465,0,0,0,1.2-2.622V63.874l8.54-11.086a3.479,3.479,0,0,1,1.535-1.135L71.36,47.7l6.264,4.716a1.212,1.212,0,0,0,1.467-.056l6.221-4.684,14.546,4.582a5.31,5.31,0,0,1,3.672,5.061v3.59a1.157,1.157,0,0,0,1.158,1.158ZM93.942,64.593v7.319H74.07a1.158,1.158,0,1,0,0,2.315H93.942V76.7H60.3V74.227h8.725a1.158,1.158,0,1,0,0-2.315H60.3V64.593ZM44.72,48.792a1.239,1.239,0,1,1,2.479,0v3.942H44.72Zm-3.6,7.415a1.159,1.159,0,0,1,1.158-1.158h4.958A1.159,1.159,0,0,1,48.4,56.207v1.322H44.762a1.158,1.158,0,1,0,0,2.315H48.4v2.479H44.762a1.158,1.158,0,1,0,0,2.315H48.4V65.96c0,.772-.468,1.105-1.157,1.157H42.283a1.159,1.159,0,0,1-1.158-1.158Zm53.2-30.231a2.07,2.07,0,0,1-2.068,2.068H91.091V21.492h1.167a2.07,2.07,0,0,1,2.068,2.068ZM63.528,12.9a5.794,5.794,0,0,1,5.788-5.788H71.17V15.7h0A3.477,3.477,0,0,1,67.7,19.177H63.528Zm.853,15.147a2.07,2.07,0,0,1-2.068-2.068V23.559a2.07,2.07,0,0,1,2.068-2.068h1.167v6.552H64.382Zm3.482,3.333V21.488a5.782,5.782,0,0,0,4.464-2.315,5.783,5.783,0,0,0,4.63,2.319H88.776v9.886c0,12.719-20.913,12.7-20.913,0Zm16.071,10.9v3.536L78.32,50.045l-5.615-4.231V42.279c2.76,1.656,8.265,1.553,11.229,0Z" transform="translate(-3982.845 -567.092)" fill="#7a96b3"/></g></svg>