<svg xmlns="http://www.w3.org/2000/svg" xmlns:xlink="http://www.w3.org/1999/xlink" width="75.697" height="112" viewBox="0 0 75.697 112"><defs><linearGradient id="a" x1="0.301" y1="0.71" x2="0.6" y2="0.401" gradientUnits="objectBoundingBox"><stop offset="0" stop-color="#fca625"/><stop offset="1" stop-color="#ea86fa"/></linearGradient></defs><g transform="translate(-6103.611 297) rotate(-90)"><g transform="translate(260.077 6179.308) rotate(180)"><path d="M34.472,0h-12.2a4.58,4.58,0,0,0-4.58,4.58v8.527a4.58,4.58,0,0,1-4.58,4.58H4.58A4.58,4.58,0,0,0,0,22.268H0v12.2a4.58,4.58,0,0,0,4.58,4.58h12.2a4.58,4.58,0,0,0,4.58-4.58V25.944a4.58,4.58,0,0,1,4.58-4.58h8.528a4.58,4.58,0,0,0,4.58-4.58V4.58A4.58,4.58,0,0,0,34.472,0" transform="translate(0)" fill="url(#a)"/><path d="M34.472,0h-12.2a4.58,4.58,0,0,0-4.58,4.58v8.527a4.58,4.58,0,0,1-4.58,4.58H4.58A4.58,4.58,0,0,0,0,22.268H0v12.2a4.58,4.58,0,0,0,4.58,4.58h12.2a4.58,4.58,0,0,0,4.58-4.58V25.944a4.58,4.58,0,0,1,4.58-4.58h8.528a4.58,4.58,0,0,0,4.58-4.58V4.58A4.58,4.58,0,0,0,34.472,0" transform="translate(0 36.646)" fill="url(#a)"/></g><g transform="translate(297 6179.308) rotate(180)"><path d="M34.472,0h-12.2a4.58,4.58,0,0,0-4.58,4.58v8.527a4.58,4.58,0,0,1-4.58,4.58H4.58A4.58,4.58,0,0,0,0,22.268H0v12.2a4.58,4.58,0,0,0,4.58,4.58h12.2a4.58,4.58,0,0,0,4.58-4.58V25.944a4.58,4.58,0,0,1,4.58-4.58h8.528a4.58,4.58,0,0,0,4.58-4.58V4.58A4.58,4.58,0,0,0,34.472,0" transform="translate(0)" fill="url(#a)"/><path d="M34.472,0h-12.2a4.58,4.58,0,0,0-4.58,4.58v8.527a4.58,4.58,0,0,1-4.58,4.58H4.58A4.58,4.58,0,0,0,0,22.268H0v12.2a4.58,4.58,0,0,0,4.58,4.58h12.2a4.58,4.58,0,0,0,4.58-4.58V25.944a4.58,4.58,0,0,1,4.58-4.58h8.528a4.58,4.58,0,0,0,4.58-4.58V4.58A4.58,4.58,0,0,0,34.472,0" transform="translate(0 36.646)" fill="url(#a)"/></g><g transform="translate(224.052 6179.308) rotate(180)"><path d="M34.472,0h-12.2a4.58,4.58,0,0,0-4.58,4.58v8.527a4.58,4.58,0,0,1-4.58,4.58H4.58A4.58,4.58,0,0,0,0,22.268H0v12.2a4.58,4.58,0,0,0,4.58,4.58h12.2a4.58,4.58,0,0,0,4.58-4.58V25.944a4.58,4.58,0,0,1,4.58-4.58h8.528a4.58,4.58,0,0,0,4.58-4.58V4.58A4.58,4.58,0,0,0,34.472,0" transform="translate(0)" fill="url(#a)"/><path d="M34.472,0h-12.2a4.58,4.58,0,0,0-4.58,4.58v8.527a4.58,4.58,0,0,1-4.58,4.58H4.58A4.58,4.58,0,0,0,0,22.268H0v12.2a4.58,4.58,0,0,0,4.58,4.58h12.2a4.58,4.58,0,0,0,4.58-4.58V25.944a4.58,4.58,0,0,1,4.58-4.58h8.528a4.58,4.58,0,0,0,4.58-4.58V4.58A4.58,4.58,0,0,0,34.472,0" transform="translate(0 36.646)" fill="url(#a)"/></g></g></svg>