<svg xmlns="http://www.w3.org/2000/svg" width="84" height="84" viewBox="0 0 84 84"><g transform="translate(-185 -4333.986)"><circle cx="42" cy="42" r="42" transform="translate(185 4333.986)" fill="#fdf3ff"/><path d="M55.22,11.855a1.632,1.632,0,0,0-.5-2.65l-5.5-2.392L47.286,1.24a1.632,1.632,0,0,0-2.7-.62L41.48,3.731A28.548,28.548,0,0,0,27.83.149,27.83,27.83,0,0,0,8.151,47.658a27.831,27.831,0,0,0,44.168-32.9ZM43.792,18.669l-3.372-.9,7.854-7.8,2.944,1.281Zm-.614,9.31A15.347,15.347,0,1,1,27.83,12.632a14.307,14.307,0,0,1,6.8,1.576l.841,3.873L33.4,20.136a9.635,9.635,0,1,0,2.3,2.314l2.039-2.026L41.755,21.5a14.273,14.273,0,0,1,1.423,6.478Zm-8.987,0a6.369,6.369,0,1,1-3.156-5.491L26.623,26.87a1.632,1.632,0,0,0,2.3,2.315L33.336,24.8a6.32,6.32,0,0,1,.855,3.178ZM45.056,4.77l.976,2.819-7.815,7.764-.668-3.076ZM52.4,27.979A24.567,24.567,0,0,1,10.459,45.35,24.567,24.567,0,0,1,27.83,3.413,25.174,25.174,0,0,1,39.066,6.145L34.612,10.6l-.013.013A18.021,18.021,0,0,0,27.83,9.369a18.61,18.61,0,1,0,18.61,18.61,17.837,17.837,0,0,0-1.059-6.29c.017-.016.035-.03.052-.047L49.9,17.178A24.555,24.555,0,0,1,52.4,27.979Z" transform="translate(199.803 4348.011)" fill="#a45eaf"/></g></svg>