<svg xmlns="http://www.w3.org/2000/svg" xmlns:xlink="http://www.w3.org/1999/xlink" width="75.209" height="150.079" viewBox="0 0 75.209 150.079"><defs><linearGradient id="a" x1="0.301" y1="0.71" x2="0.6" y2="0.401" gradientUnits="objectBoundingBox"><stop offset="0" stop-color="#fca625"/><stop offset="1" stop-color="#ea86fa"/></linearGradient></defs><g transform="translate(-6103.611 291.743) rotate(-90)"><g transform="translate(255.058 6178.82) rotate(180)"><path d="M34.25,0H22.125a4.551,4.551,0,0,0-4.551,4.551v8.472a4.551,4.551,0,0,1-4.551,4.551H4.551A4.551,4.551,0,0,0,0,22.124H0V34.249A4.551,4.551,0,0,0,4.551,38.8H16.675a4.551,4.551,0,0,0,4.551-4.551V25.777a4.551,4.551,0,0,1,4.551-4.551h8.473A4.551,4.551,0,0,0,38.8,16.675V4.551A4.551,4.551,0,0,0,34.25,0" transform="translate(0)" fill="url(#a)"/><path d="M34.25,0H22.125a4.551,4.551,0,0,0-4.551,4.551v8.472a4.551,4.551,0,0,1-4.551,4.551H4.551A4.551,4.551,0,0,0,0,22.124H0V34.249A4.551,4.551,0,0,0,4.551,38.8H16.675a4.551,4.551,0,0,0,4.551-4.551V25.777a4.551,4.551,0,0,1,4.551-4.551h8.473A4.551,4.551,0,0,0,38.8,16.675V4.551A4.551,4.551,0,0,0,34.25,0" transform="translate(0 36.409)" fill="url(#a)"/></g><g transform="translate(291.743 6178.82) rotate(180)"><path d="M34.25,0H22.125a4.551,4.551,0,0,0-4.551,4.551v8.472a4.551,4.551,0,0,1-4.551,4.551H4.551A4.551,4.551,0,0,0,0,22.124H0V34.249A4.551,4.551,0,0,0,4.551,38.8H16.675a4.551,4.551,0,0,0,4.551-4.551V25.777a4.551,4.551,0,0,1,4.551-4.551h8.473A4.551,4.551,0,0,0,38.8,16.675V4.551A4.551,4.551,0,0,0,34.25,0" transform="translate(0)" fill="url(#a)"/><path d="M34.25,0H22.125a4.551,4.551,0,0,0-4.551,4.551v8.472a4.551,4.551,0,0,1-4.551,4.551H4.551A4.551,4.551,0,0,0,0,22.124H0V34.249A4.551,4.551,0,0,0,4.551,38.8H16.675a4.551,4.551,0,0,0,4.551-4.551V25.777a4.551,4.551,0,0,1,4.551-4.551h8.473A4.551,4.551,0,0,0,38.8,16.675V4.551A4.551,4.551,0,0,0,34.25,0" transform="translate(0 36.409)" fill="url(#a)"/></g><g transform="translate(219.265 6178.82) rotate(180)"><path d="M34.25,0H22.125a4.551,4.551,0,0,0-4.551,4.551v8.472a4.551,4.551,0,0,1-4.551,4.551H4.551A4.551,4.551,0,0,0,0,22.124H0V34.249A4.551,4.551,0,0,0,4.551,38.8H16.675a4.551,4.551,0,0,0,4.551-4.551V25.777a4.551,4.551,0,0,1,4.551-4.551h8.473A4.551,4.551,0,0,0,38.8,16.675V4.551A4.551,4.551,0,0,0,34.25,0" transform="translate(0)" fill="url(#a)"/><path d="M34.25,0H22.125a4.551,4.551,0,0,0-4.551,4.551v8.472a4.551,4.551,0,0,1-4.551,4.551H4.551A4.551,4.551,0,0,0,0,22.124H0V34.249A4.551,4.551,0,0,0,4.551,38.8H16.675a4.551,4.551,0,0,0,4.551-4.551V25.777a4.551,4.551,0,0,1,4.551-4.551h8.473A4.551,4.551,0,0,0,38.8,16.675V4.551A4.551,4.551,0,0,0,34.25,0" transform="translate(38.801)" fill="url(#a)"/><path d="M34.25,0H22.125a4.551,4.551,0,0,0-4.551,4.551v8.472a4.551,4.551,0,0,1-4.551,4.551H4.551A4.551,4.551,0,0,0,0,22.124H0V34.249A4.551,4.551,0,0,0,4.551,38.8H16.675a4.551,4.551,0,0,0,4.551-4.551V25.777a4.551,4.551,0,0,1,4.551-4.551h8.473A4.551,4.551,0,0,0,38.8,16.675V4.551A4.551,4.551,0,0,0,34.25,0" transform="translate(38.801 36.409)" fill="url(#a)"/><path d="M34.25,0H22.125a4.551,4.551,0,0,0-4.551,4.551v8.472a4.551,4.551,0,0,1-4.551,4.551H4.551A4.551,4.551,0,0,0,0,22.124H0V34.249A4.551,4.551,0,0,0,4.551,38.8H16.675a4.551,4.551,0,0,0,4.551-4.551V25.777a4.551,4.551,0,0,1,4.551-4.551h8.473A4.551,4.551,0,0,0,38.8,16.675V4.551A4.551,4.551,0,0,0,34.25,0" transform="translate(0 36.409)" fill="url(#a)"/></g></g></svg>