<svg xmlns="http://www.w3.org/2000/svg" width="124" height="124" viewBox="0 0 124 124"><g transform="translate(-1205 -1288)"><circle cx="62" cy="62" r="62" transform="translate(1205 1288)" fill="#fff"/><g transform="translate(1219.019 1324.378)"><g transform="translate(0 9.536)"><g transform="translate(25.758)"><path d="M167.844,161.513a3.626,3.626,0,0,1-2.137-.708l-4.17-3.03a.726.726,0,0,0-.855,0l-4.17,3.03a3.636,3.636,0,0,1-5.6-4.066l1.593-4.9a.726.726,0,0,0-.264-.813l-4.17-3.03a3.636,3.636,0,0,1,2.137-6.578h5.154a.725.725,0,0,0,.692-.5l1.593-4.9a3.636,3.636,0,0,1,6.917,0l1.593,4.9a.725.725,0,0,0,.692.5h5.155a3.636,3.636,0,0,1,2.137,6.578l-4.17,3.03a.725.725,0,0,0-.264.813l1.593,4.9a3.582,3.582,0,0,1-1.321,4.066A3.625,3.625,0,0,1,167.844,161.513Zm-6.735-6.788a3.63,3.63,0,0,1,2.137.7l4.17,3.03a.727.727,0,0,0,1.119-.813l-1.593-4.9a3.627,3.627,0,0,1,1.321-4.066l4.17-3.03a.727.727,0,0,0-.427-1.316h-5.155a3.627,3.627,0,0,1-3.458-2.513l-1.593-4.9a.727.727,0,0,0-1.383,0l-1.593,4.9a3.627,3.627,0,0,1-3.458,2.513h-5.154a.727.727,0,0,0-.428,1.316l4.17,3.03a3.628,3.628,0,0,1,1.321,4.066l-1.593,4.9a.727.727,0,0,0,1.119.813l4.17-3.03A3.629,3.629,0,0,1,161.109,154.726Z" transform="translate(-146.567 -133.499)" fill="#7a96b3"/></g><g transform="translate(57.996 4.389)"><path d="M336.65,180.709a3.626,3.626,0,0,1-2.137-.708,3.582,3.582,0,0,1-1.321-4.066l.876-2.7a.726.726,0,0,0-.264-.813l-2.293-1.666a3.636,3.636,0,0,1,2.137-6.578h2.834a.725.725,0,0,0,.691-.5l.876-2.7a3.636,3.636,0,0,1,6.917,0l.876,2.7a.725.725,0,0,0,.692.5h2.834a3.636,3.636,0,0,1,2.137,6.578l-2.293,1.666a.725.725,0,0,0-.264.813l.876,2.7a3.636,3.636,0,0,1-5.6,4.066l-2.293-1.666a.726.726,0,0,0-.855,0L338.787,180A3.628,3.628,0,0,1,336.65,180.709Zm-3-13.616a.727.727,0,0,0-.428,1.316l2.293,1.666a3.628,3.628,0,0,1,1.321,4.066l-.876,2.7a.727.727,0,0,0,1.119.813l2.293-1.666a3.627,3.627,0,0,1,4.275,0l2.293,1.666a.727.727,0,0,0,1.119-.813l-.876-2.7a3.627,3.627,0,0,1,1.321-4.066l2.293-1.666a.727.727,0,0,0-.428-1.316h-2.834a3.627,3.627,0,0,1-3.458-2.513l-.876-2.7a.727.727,0,0,0-1.383,0l-.876,2.7a3.627,3.627,0,0,1-3.458,2.513Z" transform="translate(-330.004 -158.473)" fill="#7a96b3"/></g><g transform="translate(0 4.389)"><path d="M16.36,180.708A3.626,3.626,0,0,1,14.223,180l-2.293-1.666a.726.726,0,0,0-.855,0L8.783,180a3.636,3.636,0,0,1-5.6-4.066l.876-2.7a.726.726,0,0,0-.264-.813l-2.293-1.666a3.636,3.636,0,0,1,2.137-6.578H6.477a.726.726,0,0,0,.692-.5l.876-2.7a3.636,3.636,0,0,1,6.917,0l.876,2.7a.726.726,0,0,0,.692.5h2.834A3.636,3.636,0,0,1,21.5,170.76l-2.293,1.666a.725.725,0,0,0-.264.813l.876,2.7A3.582,3.582,0,0,1,18.5,180a3.625,3.625,0,0,1-2.138.708ZM11.5,175.284a3.63,3.63,0,0,1,2.137.7l2.292,1.666a.727.727,0,0,0,1.119-.813l-.876-2.7a3.627,3.627,0,0,1,1.321-4.066l2.293-1.666a.727.727,0,0,0-.428-1.316H16.529a3.627,3.627,0,0,1-3.458-2.513l-.876-2.7a.727.727,0,0,0-1.383,0l-.876,2.7a3.627,3.627,0,0,1-3.458,2.513H3.643a.727.727,0,0,0-.428,1.316l2.293,1.666a3.628,3.628,0,0,1,1.321,4.066l-.876,2.695a.727.727,0,0,0,1.119.813l2.293-1.666a3.63,3.63,0,0,1,2.137-.7Z" transform="translate(0.001 -158.472)" fill="#7a96b3"/></g></g><g transform="translate(17.982 -0.001)"><path d="M160.877,141.365a2.789,2.789,0,0,1-1.528-.411l-15.961-9.736a7.351,7.351,0,0,0-3.828-1.075H112.5a10.193,10.193,0,0,1-10.182-10.182v-2.292a1.454,1.454,0,1,1,2.909,0v2.292a7.281,7.281,0,0,0,7.273,7.273h27.06a10.259,10.259,0,0,1,5.343,1.5l15.961,9.736a.037.037,0,0,0,.04-.011l-.177-7.739a3.409,3.409,0,0,1,3.408-3.487,7.281,7.281,0,0,0,7.273-7.273V89.415a7.281,7.281,0,0,0-7.273-7.273H112.5a7.281,7.281,0,0,0-7.273,7.273v4.64a1.454,1.454,0,1,1-2.909,0v-4.64A10.193,10.193,0,0,1,112.5,79.233h51.635a10.193,10.193,0,0,1,10.182,10.182V119.96a10.193,10.193,0,0,1-10.182,10.182.507.507,0,0,0-.5.512l.177,7.726A2.994,2.994,0,0,1,160.877,141.365Z" transform="translate(-102.318 -79.233)" fill="#7a96b3"/></g></g></g></svg>