<svg xmlns="http://www.w3.org/2000/svg" width="124" height="124" viewBox="0 0 124 124"><g transform="translate(-269 -10458.406)"><circle cx="62" cy="62" r="62" transform="translate(269 10458.406)" fill="#fff"/><g transform="translate(299.841 10486.281)"><path d="M64.8,91.079H24.162A1.162,1.162,0,0,1,23,89.917V24.742a1.162,1.162,0,0,1,1.162-1.162H63.439a1.162,1.162,0,0,1,0,2.323H25.323V88.755H64.8a1.162,1.162,0,1,1,0,2.323Z" transform="translate(-23 -23.579)" fill="#7a96b3"/><path d="M382.222,129a1.162,1.162,0,0,1-1.162-1.162V112.3a1.162,1.162,0,0,1,2.323,0v15.537A1.162,1.162,0,0,1,382.222,129Z" transform="translate(-329.067 -98.425)" fill="#7a96b3"/><path d="M307.368,38.612H294.652a1.162,1.162,0,0,1-1.162-1.162V24.736a1.162,1.162,0,0,1,1.984-.822L308.188,36.63a1.162,1.162,0,0,1-.82,1.982Zm-11.554-2.323h8.749l-8.749-8.749Z" transform="translate(-254.213 -23.573)" fill="#7a96b3"/><path d="M87.945,69.683h-23.5a1.162,1.162,0,0,1,0-2.323h23.5a1.162,1.162,0,1,1,0,2.323Z" transform="translate(-57.431 -61.002)" fill="#7a96b3"/><path d="M87.945,113.463h-23.5a1.162,1.162,0,0,1,0-2.323h23.5a1.162,1.162,0,1,1,0,2.323Z" transform="translate(-57.431 -98.425)" fill="#7a96b3"/><path d="M104.737,157.243h-40.3a1.162,1.162,0,0,1,0-2.323h40.3a1.162,1.162,0,1,1,0,2.323Z" transform="translate(-57.431 -135.847)" fill="#7a96b3"/><path d="M104.737,201.023h-40.3a1.162,1.162,0,0,1,0-2.323h40.3a1.162,1.162,0,0,1,0,2.323Z" transform="translate(-57.431 -173.27)" fill="#7a96b3"/><path d="M133.841,282.571a12.481,12.481,0,1,1,12.481-12.481,12.481,12.481,0,0,1-12.481,12.481Zm0-22.638A10.157,10.157,0,1,0,144,270.091a10.157,10.157,0,0,0-10.157-10.157Z" transform="translate(-107.077 -223.626)" fill="#7a96b3"/><path d="M165.752,316.66a1.162,1.162,0,0,1-.822-.34L163,314.391a1.162,1.162,0,1,1,1.642-1.642l1.108,1.106,7.857-7.86a1.162,1.162,0,1,1,1.644,1.642l-8.679,8.681A1.162,1.162,0,0,1,165.752,316.66Z" transform="translate(-142.363 -264.694)" fill="#7a96b3"/><path d="M337.512,242.068a1.187,1.187,0,0,1-.372-.061,1.162,1.162,0,0,1-.726-1.472,19.389,19.389,0,0,0,.54-7.827,9.857,9.857,0,0,0-.983-3.211A7.831,7.831,0,1,1,350,229.464a9.952,9.952,0,0,0-.98,3.1,19.317,19.317,0,0,0,.533,7.973,1.162,1.162,0,0,1-2.206.726,21.761,21.761,0,0,1-.632-9,12.259,12.259,0,0,1,1.2-3.835,5.508,5.508,0,1,0-9.867.025,12.184,12.184,0,0,1,1.213,3.967,21.883,21.883,0,0,1-.645,8.858A1.162,1.162,0,0,1,337.512,242.068Z" transform="translate(-289.819 -189.908)" fill="#7a96b3"/><path d="M326.746,374.776h-22.7a1.162,1.162,0,0,1-1.162-1.162v-2.323a4.5,4.5,0,0,1,4.5-4.5H323.4a4.5,4.5,0,0,1,4.5,4.5v2.323A1.162,1.162,0,0,1,326.746,374.776ZM305.2,372.453h20.381v-1.162a2.178,2.178,0,0,0-2.178-2.178H307.384a2.178,2.178,0,0,0-2.178,2.178Z" transform="translate(-262.239 -316.952)" fill="#7a96b3"/><path d="M316.983,413.312h-26.7a1.162,1.162,0,0,1-1.162-1.162v-5.2a1.162,1.162,0,0,1,1.162-1.162h26.7a1.162,1.162,0,0,1,1.162,1.162v5.2A1.162,1.162,0,0,1,316.983,413.312Zm-25.539-2.323h24.378v-2.875H291.443Z" transform="translate(-250.477 -350.289)" fill="#7a96b3"/><path d="M326.746,448.39h-22.7a1.162,1.162,0,0,1-1.162-1.162v-4.477a1.162,1.162,0,0,1,1.162-1.162h22.7a1.162,1.162,0,0,1,1.162,1.162v4.477A1.162,1.162,0,0,1,326.746,448.39ZM305.2,446.067h20.381v-2.153H305.2Z" transform="translate(-262.239 -380.891)" fill="#7a96b3"/></g></g></svg>