<svg xmlns="http://www.w3.org/2000/svg" width="124" height="124" viewBox="0 0 124 124"><g transform="translate(-581 -10450.125)"><circle cx="62" cy="62" r="62" transform="translate(581 10450.125)" fill="#fff"/><g transform="translate(609.887 10478)"><path d="M1.415,14.119H8.474V66.641a5.654,5.654,0,0,0,5.648,5.648H36.853a1.412,1.412,0,1,0,0-2.824H19.009a5.611,5.611,0,0,0,.76-2.824V63.817H65.8v2.824a2.827,2.827,0,0,1-2.824,2.824H49.56a1.412,1.412,0,1,0,0,2.824H62.972a5.654,5.654,0,0,0,5.648-5.648V62.4a1.412,1.412,0,0,0-1.412-1.412H60.149V26.665a119.977,119.977,0,0,0,12-18.991,1.416,1.416,0,0,0-.917-1.981l-.011,0A41.449,41.449,0,0,0,59.674,4.511,7.081,7.081,0,0,0,53.089,0H5.65A5.654,5.654,0,0,0,0,5.648v7.059a1.412,1.412,0,0,0,1.412,1.412ZM54.839,28.733c-.664.779-1.37,1.56-2.1,2.328H44.618A1.412,1.412,0,0,0,43.355,33.1l2.221,4.441a84.9,84.9,0,0,1-10.192,6.9,41.123,41.123,0,0,1,7.889-19.032h9.976a1.412,1.412,0,1,0,0-2.824H45.576a43.863,43.863,0,0,1,6.072-5.648h7.53a1.412,1.412,0,0,0,0-2.824H55.791a43.989,43.989,0,0,1,12.466-5.09,118.741,118.741,0,0,1-13.419,19.7ZM34.792,35.179c.423-6.88,2.093-15.276,7.17-20.645l-1.116,9.3c0,.041-.007.083-.008.124a44.6,44.6,0,0,0-6.046,11.222Zm9.363-15.221.976-8.134a23.913,23.913,0,0,1,7.228-3.366l-3.054,6.47a1.408,1.408,0,0,0-.112.351,46.688,46.688,0,0,0-5.038,4.679ZM61.173,7.306c.887,0,1.737.031,2.537.082A46.971,46.971,0,0,0,53.8,12.031l2.042-4.325a34.559,34.559,0,0,1,5.336-.4ZM53.089,2.824a4.248,4.248,0,0,1,3.548,1.923,27.493,27.493,0,0,0-15.805,6.927c-5.839,5.434-8.116,14.047-8.774,22.034a67.767,67.767,0,0,0,.222,13.308l-.272,3.812H15.534a1.412,1.412,0,1,0,0,2.824H38.971a1.412,1.412,0,0,0,0-2.824H34.839l.211-2.966a84.763,84.763,0,0,0,13.19-8.834,1.412,1.412,0,0,0,.371-1.726L46.9,33.885h6.434a1.412,1.412,0,0,0,1.012-.427c.924-.949,1.811-1.922,2.64-2.893.113-.132.225-.267.337-.4V60.993H18.357A1.412,1.412,0,0,0,16.945,62.4v4.236a2.824,2.824,0,1,1-5.648,0V5.648a5.611,5.611,0,0,0-.76-2.824ZM2.827,5.648a2.824,2.824,0,1,1,5.648,0V11.3H2.827Z" transform="translate(-0.003 0)" fill="#7a96b3"/><path d="M101.415,322.824h12.142a1.412,1.412,0,1,0,0-2.824H101.415a1.412,1.412,0,0,0,0,2.824Z" transform="translate(-85.884 -274.82)" fill="#7a96b3"/><path d="M111.474,76.943A8.471,8.471,0,1,0,103,68.471,8.481,8.481,0,0,0,111.474,76.943Zm0-14.119a5.648,5.648,0,1,1-5.648,5.648A5.654,5.654,0,0,1,111.474,62.824Z" transform="translate(-88.461 -51.529)" fill="#7a96b3"/><circle cx="1.52" cy="1.52" r="1.52" transform="translate(41.475 69.161)" fill="#7a96b3"/></g></g></svg>