<svg xmlns="http://www.w3.org/2000/svg" width="124" height="124" viewBox="0 0 124 124"><g transform="translate(-893 -10450.125)"><circle cx="62" cy="62" r="62" transform="translate(893 10450.125)" fill="#fff"/><g transform="translate(926.748 10478)"><g transform="translate(0)"><path d="M111.6,0H61.865A3.385,3.385,0,0,0,58.48,3.385V68.826a3.385,3.385,0,0,0,3.385,3.385H67.13v7.346a1.693,1.693,0,0,0,2.979,1.1l3.724-4.333,3.724,4.333a1.693,1.693,0,0,0,2.979-1.1V72.212H111.6a3.385,3.385,0,0,0,3.385-3.385V3.385A3.385,3.385,0,0,0,111.6,0ZM75.12,72.567a1.693,1.693,0,0,0-2.573,0l-2.031,2.37V68.5a9.412,9.412,0,0,0,6.636,0v6.432ZM79.978,59.5a6.212,6.212,0,0,1-6.145,6.212h-.068A6.212,6.212,0,1,1,79.978,59.5Zm31.536,9.31H80.536V66.355a9.6,9.6,0,1,0-13.572-.166q.082.084.166.166V68.81H61.865V3.385H111.6Z" transform="translate(-58.48)" fill="#7a96b3"/></g><g transform="translate(11.849 13.39)"><path d="M145.592,63.28h-29.42a1.693,1.693,0,0,0,0,3.385h29.42a1.693,1.693,0,0,0,0-3.385Z" transform="translate(-114.48 -63.28)" fill="#7a96b3"/></g><g transform="translate(11.849 23.123)"><path d="M145.592,109.28h-29.42a1.693,1.693,0,1,0,0,3.385h29.42a1.693,1.693,0,1,0,0-3.385Z" transform="translate(-114.48 -109.28)" fill="#7a96b3"/></g><g transform="translate(11.849 32.856)"><path d="M145.592,155.28h-29.42a1.693,1.693,0,1,0,0,3.385h29.42a1.693,1.693,0,1,0,0-3.385Z" transform="translate(-114.48 -155.28)" fill="#7a96b3"/></g><g transform="translate(11.849 42.589)"><path d="M145.592,201.28h-29.42a1.693,1.693,0,1,0,0,3.385h29.42a1.693,1.693,0,1,0,0-3.385Z" transform="translate(-114.48 -201.28)" fill="#7a96b3"/></g><g transform="translate(27.829 52.322)"><path d="M205.133,247.28h-13.44a1.693,1.693,0,1,0,0,3.385h13.44a1.693,1.693,0,1,0,0-3.385Z" transform="translate(-190 -247.28)" fill="#7a96b3"/></g></g></g></svg>