<svg xmlns="http://www.w3.org/2000/svg" width="124" height="124" viewBox="0 0 124 124"><g transform="translate(-1205 -10450.125)"><circle cx="62" cy="62" r="62" transform="translate(1205 10450.125)" fill="#fff"/><g transform="translate(1233.886 10469.595)"><g transform="translate(14.774 25.148)"><path d="M103.209,171.849a1.467,1.467,0,1,0,0,2.074A1.468,1.468,0,0,0,103.209,171.849Z" transform="translate(-100.704 -171.42)" fill="#7a96b3"/></g><g transform="translate(0 57.507)"><path d="M37.146,400.163a5.136,5.136,0,0,0-4.138-8.176H8.069a5.131,5.131,0,0,0-4.135,8.174A7.341,7.341,0,0,0,0,406.657v1.467a1.467,1.467,0,0,0,1.467,1.467H39.61a1.467,1.467,0,0,0,1.467-1.467v-1.467A7.341,7.341,0,0,0,37.146,400.163Zm-30.634-4.6a2.186,2.186,0,0,1,1.556-.644H33.008a2.2,2.2,0,1,1,0,4.4H8.069a2.2,2.2,0,0,1-1.556-3.757ZM2.934,406.657a4.406,4.406,0,0,1,4.4-4.4H33.742a4.406,4.406,0,0,1,4.4,4.4Z" transform="translate(0 -391.987)" fill="#7a96b3"/></g><g transform="translate(0.003 0)"><path d="M73.767,61.636A9.238,9.238,0,0,0,72,59.607l-6.855-5.979a1.456,1.456,0,0,0-.584-.509L60.416,49.5,41.228,32.766a4.393,4.393,0,0,0-1.289-7.007l1.775-1.775a5.872,5.872,0,0,0,5.665-1.516,5.867,5.867,0,0,0,0-8.3L34.932,1.72a5.866,5.866,0,0,0-9.815,5.665L7.4,25.1a5.9,5.9,0,0,0-1.519-.2A5.867,5.867,0,0,0,1.737,34.915L14.185,47.363A5.866,5.866,0,0,0,24,41.7l1.771-1.772a4.4,4.4,0,0,0,7.009,1.286L53.219,64.693a1.474,1.474,0,0,0,.2.249c.026.026.054.05.082.074l6.09,7c.151.179.313.354.481.522a8.726,8.726,0,0,0,6.2,2.579,9.006,9.006,0,0,0,1.235-.085,8.878,8.878,0,0,0,6.55-4.534A8.681,8.681,0,0,0,73.767,61.636ZM28.707,3.8a2.933,2.933,0,0,1,4.15,0L45.3,16.243a2.934,2.934,0,0,1-4.148,4.15L28.708,7.944h0A2.936,2.936,0,0,1,28.707,3.8Zm-8.3,41.493a2.938,2.938,0,0,1-4.15,0L3.812,32.84A2.934,2.934,0,0,1,7.959,28.69l12.45,12.45A2.936,2.936,0,0,1,20.409,45.288Zm6.177-10.325-4.1,4.1L10.035,26.616l16.6-16.6L39.081,22.467l-4.11,4.11-.04.039L26.637,34.91Zm5.238,3.06-.009.009-1.033,1.033a1.467,1.467,0,0,1-2.093-2.057l8.333-8.333a1.467,1.467,0,0,1,2.489,1.054,1.454,1.454,0,0,1-.43,1.037l-1.027,1.027-.021.021Zm3.038,1.111,4.288-4.288L57.3,50.682,50.68,57.306ZM52.61,59.525l6.91-6.91,2.216,1.933-7.2,7.2ZM71.5,69.062A5.967,5.967,0,0,1,67.1,72.123a5.829,5.829,0,0,1-4.96-1.663c-.113-.113-.221-.23-.321-.349l-.014-.017-5.337-6.133,7.481-7.481,6.125,5.343.014.012a6.315,6.315,0,0,1,1.21,1.393A5.792,5.792,0,0,1,71.5,69.062Z" transform="translate(-0.021 -0.001)" fill="#7a96b3"/></g><g transform="translate(18.923 14.774)"><path d="M137.714,101.137a1.467,1.467,0,0,0-2.075,0l-6.225,6.225a1.467,1.467,0,0,0,2.075,2.075l6.225-6.225A1.467,1.467,0,0,0,137.714,101.137Z" transform="translate(-128.985 -100.707)" fill="#7a96b3"/></g></g></g></svg>