<svg xmlns="http://www.w3.org/2000/svg" width="124" height="124" viewBox="0 0 124 124"><g transform="translate(4282.303 584.617)"><circle cx="62" cy="62" r="62" transform="translate(-4282.303 -584.617)" fill="#fff"/><g transform="translate(-4259.96 -560.319)"><path d="M44.162,19.542a7.54,7.54,0,1,0-11.7,6.284H29.354l-9.233-4.2a4.33,4.33,0,0,0-4.5,7.317l10.95,8.8v6.9L23.916,56.058a5.068,5.068,0,0,0,9.742,2.765l2.963-8.842,2.963,8.835a5.068,5.068,0,0,0,9.742-2.765L46.676,44.637v-6.9l10.949-8.8a4.328,4.328,0,0,0-4.5-7.316l-9.233,4.2H40.782A7.54,7.54,0,0,0,44.162,19.542Zm0,8.8a1.257,1.257,0,0,0,.52-.113l9.481-4.309a1.818,1.818,0,0,1,1.888,3.073L44.632,36.164a1.257,1.257,0,0,0-.47.973v7.645a1.28,1.28,0,0,0,.033.284l2.684,11.562a2.555,2.555,0,0,1-4.911,1.391L37.813,45.632a1.257,1.257,0,0,0-2.388,0L31.27,58.018a2.555,2.555,0,0,1-4.911-1.391l2.684-11.562a1.279,1.279,0,0,0,.038-.284V37.136a1.257,1.257,0,0,0-.47-.979L17.192,26.983a1.813,1.813,0,0,1,1.888-3.061l9.481,4.309a1.257,1.257,0,0,0,.52.108Zm-7.54-3.77a5.027,5.027,0,1,1,5.027-5.027A5.027,5.027,0,0,1,36.622,24.569Z" transform="translate(1.08 0.566)" fill="#7a96b3"/><path d="M32.257,3A1.257,1.257,0,0,0,31,4.257V6.77a1.257,1.257,0,1,0,2.513,0V4.257A1.257,1.257,0,0,0,32.257,3Z" transform="translate(5.445 -1.744)" fill="#7a96b3"/><path d="M32.257,62.027a1.257,1.257,0,0,0,1.257-1.257V58.257a1.257,1.257,0,1,0-2.513,0V60.77A1.257,1.257,0,0,0,32.257,62.027Z" transform="translate(5.445 12.121)" fill="#7a96b3"/><path d="M60.77,33.513a1.257,1.257,0,1,0,0-2.513H58.257a1.257,1.257,0,1,0,0,2.513Z" transform="translate(12.121 5.445)" fill="#7a96b3"/><path d="M4.257,31a1.257,1.257,0,1,0,0,2.513H6.77A1.257,1.257,0,1,0,6.77,31Z" transform="translate(-1.744 5.445)" fill="#7a96b3"/><path d="M64.961,54.7h0c-5.943-.973-6.578-1.607-7.551-7.554a1.372,1.372,0,0,0-2.707,0c-.973,5.943-1.607,6.578-7.554,7.551a1.372,1.372,0,0,0,0,2.707c5.943.973,6.578,1.607,7.551,7.554a1.372,1.372,0,0,0,2.707,0c.973-5.943,1.607-6.578,7.554-7.551a1.372,1.372,0,0,0,0-2.707Zm-8.908,5.2A6.192,6.192,0,0,0,52.2,56.054,6.192,6.192,0,0,0,56.053,52.2,6.2,6.2,0,0,0,59.9,56.054,6.192,6.192,0,0,0,56.053,59.9Z" transform="translate(9.297 9.297)" fill="#7a96b3"/><path d="M3.15,13.407c5.943.973,6.578,1.607,7.551,7.554a1.372,1.372,0,0,0,2.707,0c.973-5.943,1.607-6.578,7.554-7.551a1.372,1.372,0,0,0,0-2.707h0c-5.943-.973-6.578-1.607-7.551-7.554a1.372,1.372,0,0,0-2.707,0C9.728,9.092,9.093,9.727,3.146,10.7a1.372,1.372,0,0,0,0,2.707Zm8.9-5.2A6.2,6.2,0,0,0,15.9,12.053,6.192,6.192,0,0,0,12.054,15.9,6.192,6.192,0,0,0,8.2,12.053,6.2,6.2,0,0,0,12.054,8.2Z" transform="translate(-2 -2)" fill="#7a96b3"/><path d="M3.149,57.407c5.943.973,6.578,1.607,7.551,7.554a1.372,1.372,0,0,0,2.707,0h0c.973-5.943,1.607-6.578,7.554-7.551a1.372,1.372,0,0,0,0-2.707c-5.943-.973-6.578-1.607-7.551-7.554a1.372,1.372,0,0,0-2.707,0C9.731,53.092,9.1,53.727,3.149,54.7a1.372,1.372,0,0,0,0,2.707Zm8.9-5.2A6.192,6.192,0,0,0,15.9,56.053,6.194,6.194,0,0,0,12.053,59.9,6.192,6.192,0,0,0,8.2,56.053,6.192,6.192,0,0,0,12.053,52.2Z" transform="translate(-2 9.297)" fill="#7a96b3"/><path d="M64.958,10.7c-5.943-.973-6.578-1.607-7.551-7.554a1.372,1.372,0,0,0-2.707,0c-.973,5.943-1.607,6.578-7.554,7.551a1.372,1.372,0,0,0,0,2.707c5.943.973,6.578,1.607,7.551,7.554a1.372,1.372,0,0,0,2.707,0h0c.973-5.943,1.607-6.578,7.554-7.551a1.372,1.372,0,0,0,0-2.707Zm-8.9,5.2A6.192,6.192,0,0,0,52.2,12.054,6.192,6.192,0,0,0,56.054,8.2,6.2,6.2,0,0,0,59.9,12.054,6.2,6.2,0,0,0,56.054,15.9Z" transform="translate(9.297 -2)" fill="#7a96b3"/></g></g></svg>