<svg xmlns="http://www.w3.org/2000/svg" width="124" height="124" viewBox="0 0 124 124"><g transform="translate(4140.303 579.617)"><circle cx="62" cy="62" r="62" transform="translate(-4140.303 -579.617)" fill="#fff"/><g transform="translate(-4121.391 -553.196)"><path d="M50.568,73.916a9.905,9.905,0,1,1,10-9.9A9.963,9.963,0,0,1,50.568,73.916Zm0-17.03a7.126,7.126,0,1,0,7.216,7.125A7.18,7.18,0,0,0,50.568,56.885Zm0,0" transform="translate(-33.521 -44.705)" fill="#7a96b3"/><path d="M21.068,206.9H3.633A3.625,3.625,0,0,1,0,203.294v-4.547A17.081,17.081,0,0,1,27.22,185.2a1.39,1.39,0,0,1-1.651,2.238A14.3,14.3,0,0,0,2.78,198.748v4.547a.843.843,0,0,0,.853.83H21.069a1.39,1.39,0,1,1,0,2.78Zm0,0" transform="translate(0 -150.269)" fill="#7a96b3"/><path d="M357.582,200.852H340.147a1.39,1.39,0,1,1,0-2.78h17.436a.842.842,0,0,0,.853-.829V192.7a14.2,14.2,0,0,0-14.267-14.1,14.4,14.4,0,0,0-9.032,3.186,1.39,1.39,0,1,1-1.748-2.161,17.185,17.185,0,0,1,10.78-3.805,16.983,16.983,0,0,1,17.046,16.88v4.546a3.625,3.625,0,0,1-3.633,3.609Zm0,0" transform="translate(-275.039 -145.269)" fill="#7a96b3"/><path d="M350.348,69.963a9.905,9.905,0,1,1,10-9.9A9.962,9.962,0,0,1,350.348,69.963Zm0-17.03a7.126,7.126,0,1,0,7.218,7.125A7.18,7.18,0,0,0,350.348,52.932Zm0,0" transform="translate(-281.218 -41.439)" fill="#7a96b3"/><path d="M155.536,189.914H117.807a4.534,4.534,0,0,1-4.545-4.512v-6.395a23.411,23.411,0,0,1,46.82,0V185.4a4.534,4.534,0,0,1-4.545,4.512Zm-18.865-31.3a20.538,20.538,0,0,0-20.63,20.4V185.4a1.751,1.751,0,0,0,1.765,1.732h37.729A1.751,1.751,0,0,0,157.3,185.4v-6.395a20.537,20.537,0,0,0-20.629-20.4Zm0,0" transform="translate(-93.583 -128.757)" fill="#7a96b3"/><path d="M184.128,25.45a12.8,12.8,0,0,1-12.846-12.726,12.847,12.847,0,0,1,25.693,0A12.8,12.8,0,0,1,184.128,25.45Zm0-22.671a10.018,10.018,0,0,0-10.066,9.945,10.067,10.067,0,0,0,20.133,0A10.018,10.018,0,0,0,184.128,2.78Zm0,0" transform="translate(-141.522 0)" fill="#7a96b3"/></g></g></svg>