<svg xmlns="http://www.w3.org/2000/svg" width="124" height="124" viewBox="0 0 124 124"><g transform="translate(-271 -1288)"><circle cx="62" cy="62" r="62" transform="translate(271 1288)" fill="#fff"/><g transform="translate(300.209 1309.33)"><path d="M59.571,47.68a5.614,5.614,0,0,0,.721-.611A4.987,4.987,0,0,0,61.709,43.4a5.164,5.164,0,0,0-5.2-4.873H40.774a.225.225,0,0,1-.22-.305c1.783-4.934,1.185-14.083.965-16.77a6.008,6.008,0,0,0-11.994.525,24.718,24.718,0,0,1-3.664,13.081A78.144,78.144,0,0,1,19.6,42.928L15.711,46.3a3.35,3.35,0,0,0-3.334-3.127H4.609A3.357,3.357,0,0,0,1.25,46.531V64.144a.916.916,0,1,0,1.832,0v-17.6a1.527,1.527,0,0,1,1.527-1.527h7.756a1.527,1.527,0,0,1,1.527,1.527V72.193a1.527,1.527,0,0,1-1.527,1.527H4.609a1.527,1.527,0,0,1-1.527-1.527V68.407a.916.916,0,0,0-1.832,0v3.786a3.357,3.357,0,0,0,3.359,3.359h7.756a3.357,3.357,0,0,0,3.359-3.359v-.879H17.6a17.348,17.348,0,0,1,5.46.965,19.619,19.619,0,0,0,6.29,1.026H51.877a5.034,5.034,0,0,0,3.835-8.293A5.154,5.154,0,0,0,60.121,60.2,5.036,5.036,0,0,0,58.7,56.535l-.085-.085a5.03,5.03,0,0,0,.953-8.77ZM56.677,55H47.358a.916.916,0,1,0,0,1.832h7.719a3.213,3.213,0,0,1,3.2,3.31,3.315,3.315,0,0,1-3.371,3.1H47.358a.916.916,0,1,0,0,1.832h4.519a3.2,3.2,0,1,1,0,6.4H29.354a18.116,18.116,0,0,1-5.7-.928,19.172,19.172,0,0,0-6.034-1.063H15.723V48.718l5.13-4.47a77.473,77.473,0,0,0,6.51-8.147,26.782,26.782,0,0,0,3.994-14.119A4.179,4.179,0,0,1,39.7,21.6c.452,5.337.464,12.348-.855,15.988a2.028,2.028,0,0,0,.256,1.881,2.073,2.073,0,0,0,1.7.879H56.53a3.315,3.315,0,0,1,3.371,3.1,3.213,3.213,0,0,1-3.2,3.31H47.358a.916.916,0,0,0,0,1.832h9.319a3.2,3.2,0,1,1,0,6.4Z" transform="translate(-2.25 4.007)" fill="#7a96b3" stroke="#7a96b3" stroke-width="1"/><path d="M61,15.022a.917.917,0,0,0-.867-.635H51.765L49.176,6.435a.91.91,0,0,0-1.734,0l-2.589,7.951H36.485a.905.905,0,0,0-.867.635.922.922,0,0,0,.33,1.026l6.767,4.91-2.589,7.951a.914.914,0,0,0,1.4,1.026l6.779-4.922,6.767,4.91a.879.879,0,0,0,.537.171.966.966,0,0,0,.537-.171.922.922,0,0,0,.33-1.026L53.89,20.945l6.767-4.91A.9.9,0,0,0,61,15.022Zm-8.721,4.837a.922.922,0,0,0-.33,1.026l1.918,5.9-5.02-3.64a.93.93,0,0,0-1.075,0L42.751,26.8l1.918-5.9a.922.922,0,0,0-.33-1.026l-5.02-3.652h6.2a.905.905,0,0,0,.867-.635l1.918-5.9,1.918,5.9a.917.917,0,0,0,.867.635h6.2Z" transform="translate(6.349 -0.243)" fill="#7a96b3"/><path d="M69,29.476a15.264,15.264,0,0,0,4.1-10.211C73.1,9.336,62.71,1.25,49.922,1.25,38.4,1.25,28.78,7.675,27.033,16.517a.915.915,0,1,0,1.8.354c1.563-7.866,10.626-13.79,21.093-13.79,11.774,0,21.35,7.255,21.35,16.183a13.591,13.591,0,0,1-3.921,9.307.917.917,0,0,0-.232.782l1.368,7.609-6.437-3.933a.945.945,0,0,0-.867-.049,27.464,27.464,0,0,1-22.022.22.916.916,0,1,0-.745,1.673,29.344,29.344,0,0,0,23.1-.024l7.756,4.739a.97.97,0,0,0,.476.134.851.851,0,0,0,.513-.159.9.9,0,0,0,.379-.916Z" transform="translate(4.454 -1.25)" fill="#7a96b3"/></g></g></svg>