<svg xmlns="http://www.w3.org/2000/svg" width="124" height="124" viewBox="0 0 124 124"><g transform="translate(-581 -1288)"><circle cx="62" cy="62" r="62" transform="translate(581 1288)" fill="#fff"/><g transform="translate(604.716 1315.741)"><path d="M36.64,11c-24.853.167-34.921,31.814-15.123,46.319a25.678,25.678,0,0,0,30.246,0C71.56,42.817,61.491,11.162,36.64,11ZM23.2,55.536a9.816,9.816,0,0,1,9.235-10.31,4.9,4.9,0,0,0,8.407,0,9.816,9.816,0,0,1,9.228,10.309C42.618,61.223,30.662,61.222,23.2,55.536ZM36.64,40.313A11,11,0,0,1,25.647,29.321c.6-14.583,21.384-14.579,21.985,0A11,11,0,0,1,36.64,40.313Zm0,2.443a13.421,13.421,0,0,0,2.443-.233,2.451,2.451,0,1,1-4.886,0,13.421,13.421,0,0,0,2.443.233ZM52.436,53.6A12.233,12.233,0,0,0,41.52,42.818c0-.021.005-.041.005-.062v-.933C55.16,36.3,51.535,16.146,36.64,15.886c-14.9.261-18.518,20.414-4.885,25.937v.933c0,.021.005.04.005.062A12.233,12.233,0,0,0,20.844,53.6C5.543,39.437,15.569,13.5,36.64,13.443c21.072.054,31.1,26,15.8,40.159Z" transform="translate(0.002 -0.007)" fill="#7a96b3"/><path d="M74.062,37.42h-3.7a31.787,31.787,0,0,0-30.5-30.5v-3.7a1.221,1.221,0,0,0-2.443,0v3.7a31.787,31.787,0,0,0-30.5,30.5h-3.7a1.221,1.221,0,1,0,0,2.443h3.7a31.787,31.787,0,0,0,30.5,30.5v3.7a1.221,1.221,0,1,0,2.443,0v-3.7a31.787,31.787,0,0,0,30.5-30.5h3.7a1.221,1.221,0,1,0,0-2.443Zm-34.2,30.5v-1.19a1.221,1.221,0,0,0-2.443,0v1.19A29.345,29.345,0,0,1,9.359,39.863h1.19a1.221,1.221,0,1,0,0-2.443H9.359A29.345,29.345,0,0,1,37.42,9.359v1.19a1.221,1.221,0,0,0,2.443,0V9.359A29.345,29.345,0,0,1,67.924,37.42h-1.19a1.221,1.221,0,1,0,0,2.443h1.19A29.345,29.345,0,0,1,39.863,67.924Z" transform="translate(-2 -2)" fill="#7a96b3"/><path d="M51.221,6.443h4.886a1.222,1.222,0,0,1,1.221,1.221V12.55a1.221,1.221,0,1,0,2.443,0V7.664A3.668,3.668,0,0,0,56.107,4H51.221a1.221,1.221,0,1,0,0,2.443Z" transform="translate(8.627 -1.557)" fill="#7a96b3"/><path d="M7.221,13.771A1.221,1.221,0,0,0,8.443,12.55V7.664A1.222,1.222,0,0,1,9.664,6.443H14.55A1.221,1.221,0,1,0,14.55,4H9.664A3.668,3.668,0,0,0,6,7.664V12.55a1.221,1.221,0,0,0,1.221,1.221Z" transform="translate(-1.114 -1.557)" fill="#7a96b3"/><path d="M58.55,52a1.221,1.221,0,0,0-1.221,1.221v4.886a1.222,1.222,0,0,1-1.221,1.221H51.221a1.221,1.221,0,0,0,0,2.443h4.886a3.668,3.668,0,0,0,3.664-3.664V53.221A1.221,1.221,0,0,0,58.55,52Z" transform="translate(8.627 9.07)" fill="#7a96b3"/><path d="M14.55,59.328H9.664a1.222,1.222,0,0,1-1.221-1.221V53.221a1.221,1.221,0,1,0-2.443,0v4.886a3.668,3.668,0,0,0,3.664,3.664H14.55a1.221,1.221,0,1,0,0-2.443Z" transform="translate(-1.114 9.07)" fill="#7a96b3"/></g></g></svg>