<svg xmlns="http://www.w3.org/2000/svg" width="59" height="59" viewBox="0 0 59 59"><g transform="translate(-289 -2726)"><circle cx="29.5" cy="29.5" r="29.5" transform="translate(289 2726)" fill="#aed6ff"/><g transform="translate(228.167 2737.537)"><ellipse cx="0.5" cy="1" rx="0.5" ry="1" transform="translate(92.333 22.962)" fill="#7a96b3"/><path d="M83.407,11.7h18.518a.741.741,0,0,0,.741-.741V.741A.741.741,0,0,0,101.926,0H83.407a.741.741,0,0,0-.741.741v4.37h-1.59a2.6,2.6,0,0,0-1.743-1.743V.741a.741.741,0,1,0-1.481,0V3.368a2.592,2.592,0,0,0,0,4.968v8.143a2.592,2.592,0,0,0,0,4.968V29.59a2.592,2.592,0,0,0,0,4.968v2.627a.741.741,0,1,0,1.481,0V34.558a2.6,2.6,0,0,0,1.743-1.743h1.59v4.37a.741.741,0,0,0,.741.741h18.518a.741.741,0,0,0,.741-.741V26.963a.741.741,0,0,0-.741-.741H83.407a.741.741,0,0,0-.741.741v4.37h-1.59a2.6,2.6,0,0,0-1.743-1.743V21.447A2.6,2.6,0,0,0,81.077,19.7h1.59V24a.756.756,0,0,0,.741.741h5.926a.741.741,0,1,0,0-1.481H84.148V14.667h17.037v8.593H96a.741.741,0,1,0,0,1.481h5.926a.741.741,0,0,0,.741-.741V13.926a.741.741,0,0,0-.741-.741H83.407a.756.756,0,0,0-.741.741v4.3h-1.59a2.6,2.6,0,0,0-1.743-1.743V8.336a2.6,2.6,0,0,0,1.743-1.743h1.59v4.37a.741.741,0,0,0,.741.741Zm.741,16h17.037v8.741H84.148ZM79.7,32.074a1.111,1.111,0,1,1-1.111-1.111A1.112,1.112,0,0,1,79.7,32.074Zm0-13.111a1.111,1.111,0,1,1-1.111-1.111A1.112,1.112,0,0,1,79.7,18.963Zm-1.111-12A1.111,1.111,0,1,1,79.7,5.852,1.112,1.112,0,0,1,78.593,6.963Zm5.556-5.481h17.037v8.741H84.148Z" fill="#7a96b3"/><circle cx="0.5" cy="0.5" r="0.5" transform="translate(95.333 6.962)" fill="#7a96b3"/><path d="M206.741,90.481h5.926a.741.741,0,0,0,0-1.481h-5.926a.741.741,0,1,0,0,1.481Z" transform="translate(-120.37 -82.407)" fill="#7a96b3"/><path d="M314.741,50.481h4.593a.741.741,0,1,0,0-1.481h-4.593a.741.741,0,0,0,0,1.481Z" transform="translate(-220.37 -45.37)" fill="#7a96b3"/><path d="M206.741,50.481h4.667a.741.741,0,1,0,0-1.481h-4.667a.741.741,0,1,0,0,1.481Z" transform="translate(-120.37 -45.37)" fill="#7a96b3"/><path d="M206.741,267.481h5.926a.741.741,0,1,0,0-1.481h-5.926a.741.741,0,1,0,0,1.481Z" transform="translate(-120.37 -246.296)" fill="#7a96b3"/><circle cx="0.5" cy="0.5" r="0.5" transform="translate(95.333 19.962)" fill="#7a96b3"/><path d="M211.407,227.481a.741.741,0,0,0,0-1.481h-4.667a.741.741,0,0,0,0,1.481Z" transform="translate(-120.37 -209.259)" fill="#7a96b3"/><path d="M320.074,226.741a.741.741,0,0,0-.741-.741h-4.593a.741.741,0,0,0,0,1.481h4.593A.741.741,0,0,0,320.074,226.741Z" transform="translate(-220.37 -209.259)" fill="#7a96b3"/><path d="M206.741,444.481h5.926a.741.741,0,1,0,0-1.481h-5.926a.741.741,0,1,0,0,1.481Z" transform="translate(-120.37 -410.185)" fill="#7a96b3"/><circle cx="0.5" cy="0.5" r="0.5" transform="translate(95.333 32.962)" fill="#7a96b3"/><path d="M206.741,404.481h4.667a.741.741,0,1,0,0-1.481h-4.667a.741.741,0,1,0,0,1.481Z" transform="translate(-120.37 -373.148)" fill="#7a96b3"/><path d="M314.741,404.481h4.593a.741.741,0,1,0,0-1.481h-4.593a.741.741,0,0,0,0,1.481Z" transform="translate(-220.37 -373.148)" fill="#7a96b3"/></g></g></svg>