<svg xmlns="http://www.w3.org/2000/svg" width="124" height="124" viewBox="0 0 124 124"><g transform="translate(-893 -1288)"><circle cx="62" cy="62" r="62" transform="translate(893 1288)" fill="#fff"/><path d="M80.82,46.569a10.313,10.313,0,1,0-20.622,0,10.578,10.578,0,0,0,4.594,8.752h-.281A11.7,11.7,0,0,0,52.829,67v7.624a4.063,4.063,0,0,0,4.058,4.058H84.133a4.063,4.063,0,0,0,4.058-4.058V67A11.7,11.7,0,0,0,76.509,55.321h-.281A10.581,10.581,0,0,0,80.82,46.569ZM86.08,67v7.624a1.951,1.951,0,0,1-1.949,1.949H78.713V68.353a1.054,1.054,0,1,0-2.109,0v8.221H64.413V68.353a1.054,1.054,0,1,0-2.109,0v8.221H56.886a1.951,1.951,0,0,1-1.949-1.949V67a9.584,9.584,0,0,1,9.573-9.573h12A9.585,9.585,0,0,1,86.08,67ZM70.509,54.982a8.416,8.416,0,1,1,8.2-8.413A8.318,8.318,0,0,1,70.509,54.982Zm39.549,3.942A38.771,38.771,0,0,1,98.472,86.644,39.473,39.473,0,0,1,70.509,98.122a1.054,1.054,0,0,1,0-2.109,37.08,37.08,0,0,0,2.408-74.1L76.4,25.855a1.055,1.055,0,1,1-1.58,1.4l-5.105-5.773a1.052,1.052,0,0,1,.155-1.54l6.251-4.715a1.054,1.054,0,0,1,1.269,1.684l-3.887,2.933A39.437,39.437,0,0,1,98.658,31.393,38.77,38.77,0,0,1,110.059,58.924ZM59.509,95.688a1.054,1.054,0,0,1-.638,1.388L51.3,99.662a1.055,1.055,0,0,1-.682-2l5.216-1.782A38.746,38.746,0,0,1,38.357,82.112a39.845,39.845,0,0,1-7.4-23.19,38.63,38.63,0,0,1,7.921-23.536,39.862,39.862,0,0,1,20.066-13.96,1.055,1.055,0,0,1,.61,2.019A36.931,36.931,0,0,0,33.069,58.924,37.45,37.45,0,0,0,56.517,93.887l-1.764-4.406A1.054,1.054,0,1,1,56.71,88.7Z" transform="translate(886.941 1292.635)" fill="#7a96b3"/></g></svg>