<svg xmlns="http://www.w3.org/2000/svg" width="84" height="84" viewBox="0 0 84 84"><g transform="translate(-185 -625)"><circle cx="42" cy="42" r="42" transform="translate(185 625)" fill="#fdf3ff"/><g transform="translate(202.99 641)"><path d="M46.757,32.264V4.365A4.37,4.37,0,0,0,42.392,0H10.283A4.37,4.37,0,0,0,5.917,4.365V5.917H4.365a4.365,4.365,0,0,0,0,8.731H5.917v5.82H4.365a4.365,4.365,0,0,0,0,8.731H5.917v5.82H4.365a4.365,4.365,0,0,0,0,8.731H5.917V45.2a4.488,4.488,0,0,0,1.256,3.112,4.276,4.276,0,0,0,3.11,1.35h29.2a10.249,10.249,0,0,0,7.275-17.4ZM4.365,11.738a1.455,1.455,0,0,1,0-2.91H7.372a1.455,1.455,0,0,1,0,2.91Zm0,14.551a1.455,1.455,0,0,1,0-2.91H7.372a1.455,1.455,0,0,1,0,2.91ZM7.372,40.839H4.365a1.455,1.455,0,0,1,0-2.91H7.372a1.455,1.455,0,0,1,0,2.91Zm2.91,5.917A1.546,1.546,0,0,1,8.828,45.2V43.5a4.364,4.364,0,0,0,0-8.23V28.948a4.364,4.364,0,0,0,0-8.23V14.4a4.364,4.364,0,0,0,0-8.23v-1.8A1.457,1.457,0,0,1,10.283,2.91H42.392a1.457,1.457,0,0,1,1.455,1.455V30.183a10.183,10.183,0,0,0-14.551,9.2,10.3,10.3,0,0,0,3.093,7.372Zm29.2,0a7.324,7.324,0,1,1,7.275-7.372A7.333,7.333,0,0,1,39.481,46.757Z" fill="#a45eaf"/><g transform="translate(29.296 11.738)"><path d="M312.186,121h-8.731a1.455,1.455,0,0,0,0,2.91h8.731a1.455,1.455,0,1,0,0-2.91Z" transform="translate(-302 -121)" fill="#a45eaf"/></g><g transform="translate(29.296 23.378)"><path d="M312.186,241h-8.731a1.455,1.455,0,0,0,0,2.91h8.731a1.455,1.455,0,1,0,0-2.91Z" transform="translate(-302 -241)" fill="#a45eaf"/></g><g transform="translate(38.026 35.019)"><path d="M396.365,363.91H394.91v-1.455a1.455,1.455,0,0,0-2.91,0v2.91a1.455,1.455,0,0,0,1.455,1.455h2.91a1.455,1.455,0,1,0,0-2.91Z" transform="translate(-392 -361)" fill="#a45eaf"/></g><g transform="translate(14.239 8.827)"><path d="M158.406,91.426a1.455,1.455,0,0,0-2.058,0l-4.792,4.791-2.29-2.29a1.455,1.455,0,1,0-2.058,2.058l3.319,3.319a1.455,1.455,0,0,0,2.058,0l5.82-5.82A1.455,1.455,0,0,0,158.406,91.426Z" transform="translate(-146.783 -91)" fill="#a45eaf"/></g><g transform="translate(14.239 20.468)"><path d="M158.406,211.426a1.455,1.455,0,0,0-2.058,0l-4.792,4.791-2.29-2.29a1.455,1.455,0,1,0-2.058,2.058l3.319,3.319a1.455,1.455,0,0,0,2.058,0l5.82-5.82A1.455,1.455,0,0,0,158.406,211.426Z" transform="translate(-146.783 -211)" fill="#a45eaf"/></g><g transform="translate(14.239 32.109)"><path d="M158.406,331.426a1.455,1.455,0,0,0-2.058,0l-4.792,4.791-2.29-2.29a1.455,1.455,0,0,0-2.058,2.058l3.319,3.319a1.455,1.455,0,0,0,2.058,0l5.82-5.82A1.455,1.455,0,0,0,158.406,331.426Z" transform="translate(-146.783 -331)" fill="#a45eaf"/></g></g></g></svg>